<svg>
    <symbol id="basket" viewBox="0 0 18 16" fill="none" xmlns="http://www.w3.org/2000/svg">
    <path d="M17.8961 3.05165C17.7931 2.91217 17.6273 2.82596 17.4472 2.8187L6.28162 2.36414C5.96126 2.3509 5.69355 2.58449 5.67986 2.88566C5.66624 3.1867 5.91317 3.44107 6.232 3.45401L16.6416 3.87783L14.5949 9.90922H5.48658L3.84103 1.44688C3.80486 1.26141 3.67004 1.10668 3.4841 1.03778L0.788965 0.0377747C0.491928 -0.0720606 0.156743 0.0657377 0.0400874 0.345938C-0.0763672 0.62629 0.0694931 0.943051 0.36637 1.05323L2.76277 1.94237L4.43736 10.5532C4.48784 10.8121 4.72671 11.0001 5.0055 11.0001H5.28328L4.64896 12.6642C4.59587 12.8036 4.61775 12.9584 4.7081 13.0795C4.79833 13.2006 4.94508 13.2727 5.10173 13.2727H5.54664C5.27095 13.5625 5.10173 13.944 5.10173 14.3636C5.10173 15.266 5.87913 16 6.83433 16C7.78953 16 8.56693 15.266 8.56693 14.3636C8.56693 13.9441 8.39771 13.5625 8.12206 13.2727H11.8996C11.6237 13.5625 11.4546 13.944 11.4546 14.3636C11.4546 15.266 12.2318 16 13.1872 16C14.1426 16 14.9198 15.266 14.9198 14.3636C14.9198 13.9441 14.7506 13.5625 14.475 13.2727H15.016C15.2819 13.2727 15.4973 13.0692 15.4973 12.8182C15.4973 12.5671 15.2819 12.3636 15.016 12.3636H5.78652L6.30624 11H15.016C15.2672 11 15.4894 10.8467 15.5659 10.621L17.9723 3.52998C18.0275 3.36814 17.9992 3.19119 17.8961 3.05165ZM6.83437 15.0911C6.40968 15.0911 6.0643 14.7649 6.0643 14.3638C6.0643 13.9627 6.40968 13.6365 6.83437 13.6365C7.25906 13.6365 7.6044 13.9627 7.6044 14.3638C7.6044 14.7649 7.25906 15.0911 6.83437 15.0911ZM13.1872 15.0911C12.7625 15.0911 12.4171 14.7649 12.4171 14.3638C12.4171 13.9627 12.7625 13.6365 13.1872 13.6365C13.6119 13.6365 13.9572 13.9627 13.9572 14.3638C13.9572 14.7649 13.6119 15.0911 13.1872 15.0911Z" fill="#1B1A17"/>
    </symbol>
    <symbol id="search" viewBox="0 0 16 16" fill="none" xmlns="http://www.w3.org/2000/svg">
    <path d="M15.8041 14.8637L11.9576 11.0171C12.911 9.85469 13.4857 8.36571 13.4857 6.74286C13.4857 3.02041 10.4653 0 6.74286 0C3.01714 0 0 3.02041 0 6.74286C0 10.4653 3.01714 13.4857 6.74286 13.4857C8.36571 13.4857 9.85143 12.9143 11.0139 11.9608L14.8604 15.8041C15.1216 16.0653 15.5429 16.0653 15.8041 15.8041C16.0653 15.5461 16.0653 15.1216 15.8041 14.8637ZM6.74286 12.1437C3.76163 12.1437 1.33878 9.72082 1.33878 6.74286C1.33878 3.7649 3.76163 1.33878 6.74286 1.33878C9.72082 1.33878 12.1469 3.7649 12.1469 6.74286C12.1469 9.72082 9.72082 12.1437 6.74286 12.1437Z" fill="#1B1A17"/>
    </symbol>
    <symbol id="favourite" viewBox="0 0 21 18" fill="none" xmlns="http://www.w3.org/2000/svg">
    <path d="M19.9686 5.77104C19.6912 3.00625 17.5306 1.00033 14.8266 1.00033C13.0251 1.00033 11.3757 1.87835 10.4475 3.28557C9.5278 1.86015 7.94595 1 6.17336 1C3.4697 1 1.30868 3.00592 1.0317 5.77071C1.00978 5.89283 0.919889 6.53555 1.19321 7.58368C1.58712 9.09548 2.49699 10.4706 3.82378 11.5594L10.4431 17L17.1761 11.5598C18.5029 10.4706 19.4128 9.09581 19.8067 7.58368C20.08 6.53588 19.9902 5.89316 19.9686 5.77104ZM19.0953 7.4321C18.7357 8.81284 17.9022 10.0708 16.6872 11.0676L10.4475 16.1097L4.31489 11.069C3.09772 10.0701 2.26459 8.81251 1.90466 7.43177C1.64595 6.4399 1.75229 5.87959 1.75265 5.87595L1.75813 5.84253C1.99565 3.42027 3.85229 1.66191 6.17336 1.66191C7.88602 1.66191 9.39369 2.61506 10.1092 4.14903L10.4457 4.87151L10.7822 4.14903C11.4864 2.63856 13.0737 1.66224 14.8269 1.66224C17.1476 1.66224 19.0047 3.4206 19.2469 5.8743C19.2476 5.87959 19.354 6.44023 19.0953 7.4321Z" fill="#1B1A17" stroke="#1B1A17" stroke-width="0.75"/>
    </symbol>
    <symbol id="logo" width="20" height="20" viewBox="0 0 20 20" fill="none" xmlns="http://www.w3.org/2000/svg">
    <path d="M18.6818 12.5344C18.1028 14.3757 16.8142 16.6577 14.2917 18.0103C12.7282 18.8487 11.0306 19.1833 9.38314 19.071L9.42568 0.942909C9.47777 0.938618 9.53005 0.93472 9.58253 0.931229C10.0681 0.927688 10.6665 0.949319 11.28 1.01902C11.5536 1.05012 11.8247 1.0902 12.0863 1.1403C12.6587 1.27589 13.2174 1.46652 13.754 1.70967C15.5103 2.50552 17.0281 3.86323 18.0099 5.69434C18.8203 7.2056 19.1598 8.84194 19.0803 10.437C19.0472 10.9746 18.9268 11.7156 18.6818 12.5344ZM8.42537 1.07488L8.38343 18.947C5.74393 18.4708 3.34092 16.838 1.97576 14.292C-0.398422 9.86431 1.2663 4.35026 5.694 1.97607C6.26708 1.66878 7.24635 1.28822 8.42537 1.07488Z" stroke="url(#paint0_linear_0_497)"/>
    <defs>
    <linearGradient id="paint0_linear_0_497" x1="0.755987" y1="8.7235" x2="20.9646" y2="9.99221" gradientUnits="userSpaceOnUse">
    <stop offset="0.288448" stop-color="#555248"/>
    <stop offset="0.780176" stop-color="#1B1A17" stop-opacity="0"/>
    </linearGradient>
    </defs>
    </symbol>

</svg>

